<svg width="15" height="16" viewBox="0 0 15 16" fill="none" xmlns="http://www.w3.org/2000/svg">
<path d="M6.06 7.145C6.0975 6.8975 6.18 6.68 6.285 6.4925C6.39 6.305 6.54 6.1475 6.7275 6.0275C6.9075 5.915 7.1325 5.8625 7.41 5.855C7.5825 5.8625 7.74 5.8925 7.8825 5.9525C8.0325 6.02 8.1675 6.11 8.2725 6.2225C8.3775 6.335 8.46 6.47 8.5275 6.62C8.595 6.77 8.625 6.935 8.6325 7.1H9.975C9.96 6.7475 9.8925 6.425 9.765 6.1325C9.6375 5.84 9.465 5.585 9.24 5.375C9.015 5.165 8.745 5 8.43 4.88C8.115 4.76 7.77 4.7075 7.3875 4.7075C6.9 4.7075 6.4725 4.79 6.1125 4.9625C5.7525 5.135 5.4525 5.36 5.2125 5.6525C4.9725 5.945 4.7925 6.2825 4.68 6.6725C4.5675 7.0625 4.5 7.4675 4.5 7.9025V8.105C4.5 8.54 4.56 8.945 4.6725 9.335C4.785 9.725 4.965 10.0625 5.205 10.3475C5.445 10.6325 5.745 10.865 6.105 11.03C6.465 11.195 6.8925 11.285 7.38 11.285C7.7325 11.285 8.0625 11.225 8.37 11.1125C8.6775 11 8.9475 10.8425 9.18 10.64C9.4125 10.4375 9.6 10.205 9.735 9.935C9.87 9.665 9.9525 9.38 9.96 9.0725H8.6175C8.61 9.23 8.5725 9.3725 8.505 9.5075C8.4375 9.6425 8.3475 9.755 8.235 9.8525C8.1225 9.95 7.995 10.025 7.845 10.0775C7.7025 10.13 7.5525 10.145 7.395 10.1525C7.125 10.145 6.9 10.0925 6.7275 9.98C6.54 9.86 6.39 9.7025 6.285 9.515C6.18 9.3275 6.0975 9.1025 6.06 8.855C6.0225 8.6075 6 8.3525 6 8.105V7.9025C6 7.64 6.0225 7.3925 6.06 7.145ZM7.5 0.5C3.36 0.5 0 3.86 0 8C0 12.14 3.36 15.5 7.5 15.5C11.64 15.5 15 12.14 15 8C15 3.86 11.64 0.5 7.5 0.5ZM7.5 14C4.1925 14 1.5 11.3075 1.5 8C1.5 4.6925 4.1925 2 7.5 2C10.8075 2 13.5 4.6925 13.5 8C13.5 11.3075 10.8075 14 7.5 14Z" fill="white"/>
</svg>
