<svg width="20" height="15" viewBox="0 0 20 15" fill="none" xmlns="http://www.w3.org/2000/svg">
<path fill-rule="evenodd" clip-rule="evenodd" d="M19.5553 0.989484C19.8365 1.27078 19.9945 1.65224 19.9945 2.04998C19.9945 2.44773 19.8365 2.82919 19.5553 3.11048L8.3123 14.3535C8.16372 14.5021 7.98733 14.62 7.79318 14.7004C7.59904 14.7808 7.39095 14.8222 7.1808 14.8222C6.97066 14.8222 6.76257 14.7808 6.56843 14.7004C6.37428 14.62 6.19788 14.5021 6.0493 14.3535L0.463303 8.76848C0.320038 8.63011 0.205765 8.4646 0.127151 8.28159C0.0485379 8.09859 0.00715845 7.90175 0.00542773 7.70259C0.003697 7.50342 0.0416497 7.3059 0.117071 7.12155C0.192492 6.93721 0.303872 6.76973 0.444711 6.62889C0.58555 6.48805 0.753028 6.37667 0.937372 6.30125C1.12172 6.22583 1.31924 6.18788 1.51841 6.18961C1.71757 6.19134 1.9144 6.23272 2.09741 6.31133C2.28042 6.38995 2.44593 6.50422 2.5843 6.64748L7.1803 11.2435L17.4333 0.989484C17.5726 0.850095 17.738 0.739519 17.9201 0.664077C18.1021 0.588635 18.2972 0.549805 18.4943 0.549805C18.6914 0.549805 18.8865 0.588635 19.0686 0.664077C19.2506 0.739519 19.416 0.850095 19.5553 0.989484Z" fill="white"/>
</svg>
