<svg width="21" height="18" viewBox="0 0 21 18" fill="none" xmlns="http://www.w3.org/2000/svg">
<path d="M1.4 0.71L2.11 0L18.86 16.75L18.15 17.46L14.81 14.11C13.44 14.68 11.94 15 10.36 15C5.8 15 1.86 12.35 0 8.5C0.97 6.5 2.49 4.83 4.36 3.68L1.4 0.71ZM10.36 14C11.65 14 12.89 13.77 14.03 13.34L12.91 12.21C12.18 12.71 11.31 13 10.36 13C7.86 13 5.86 11 5.86 8.5C5.86 7.55 6.15 6.68 6.65 5.95L5.1 4.41C3.42564 5.38547 2.04947 6.79968 1.12 8.5C2.9 11.78 6.36 14 10.36 14ZM19.6 8.5C17.82 5.22 14.36 3 10.36 3C9.21 3 8.09 3.19 7.05 3.53L6.27 2.75C7.54 2.26 8.92 2 10.36 2C14.92 2 18.86 4.65 20.72 8.5C19.8113 10.3858 18.4038 11.987 16.65 13.13L15.93 12.4C17.46 11.44 18.73 10.1 19.6 8.5ZM10.36 4C12.86 4 14.86 6 14.86 8.5C14.86 9.32 14.64 10.08 14.26 10.74L13.52 10C13.74 9.54 13.86 9.04 13.86 8.5C13.86 7.57174 13.4913 6.6815 12.8349 6.02513C12.1785 5.36875 11.2883 5 10.36 5C9.82 5 9.32 5.12 8.86 5.34L8.12 4.6C8.78 4.22 9.54 4 10.36 4ZM6.86 8.5C6.86 9.42826 7.22875 10.3185 7.88513 10.9749C8.5415 11.6313 9.43174 12 10.36 12C11.03 12 11.65 11.81 12.18 11.5L7.36 6.68C7.05 7.21 6.86 7.83 6.86 8.5Z" fill="#757575"/>
</svg>
