<svg width="151" height="41" viewBox="0 0 151 41" fill="none" xmlns="http://www.w3.org/2000/svg">
<path d="M120.029 4.07686C122.471 2.04789 124.12 1.58844 129.756 1.31891C138.231 0.914783 145.755 1.13334 146.202 1.84615C146.405 2.16299 146.593 4.33148 146.574 6.6559C146.543 10.438 146.457 10.9101 145.755 11.2984C145.301 11.5311 142.051 11.6624 138.226 11.6314C132.798 11.5874 131.317 11.6936 130.573 12.1998C129.705 12.7837 129.662 12.9804 129.601 20.4658C129.525 29.8422 129.484 29.8025 134.174 29.6435L137.135 29.5493L137.251 25.4133C137.467 19.1111 136.928 19.6584 143.221 19.4336C146.595 19.3033 148.897 19.3613 149.388 19.6411C150.126 20.0017 150.162 20.6324 150.089 29.6542C150.017 38.4397 149.97 39.2667 149.31 39.4584C148.898 39.5732 143.592 39.6485 137.465 39.6776C127.677 39.6771 126.074 39.5853 123.9 38.9373C120.782 38.0059 117.925 35.343 117.247 32.6977C116.968 31.6711 116.804 26.4296 116.816 19.9288C116.794 7.439 116.965 6.61301 120.029 4.07686Z" fill="white"/>
<path d="M78.0449 39.1568C77.4376 37.9699 77.767 2.39488 78.4301 1.76986C78.7616 1.45735 80.4077 1.31309 83.1628 1.33541L87.3572 1.36939L88.908 2.83974C89.7648 3.67407 91.1106 5.06395 91.8849 5.93701C96.7754 11.4138 98.9366 13.677 99.2656 13.6797C99.4712 13.6814 99.6561 11.1613 99.6817 8.00955C99.7168 3.6759 99.8516 2.25861 100.307 1.9077C100.679 1.59553 102.654 1.49333 106.354 1.60211L111.864 1.76494L112.077 5.90361C112.223 8.18996 112.279 16.5037 112.256 24.3834C112.193 37.2271 112.098 38.8023 111.476 39.4671C110.896 40.0533 110.154 40.1655 105.919 40.1312C99.5452 40.0796 99.3408 39.9203 99.5041 34.9967C99.6594 31.058 100.186 32.0079 94.1967 25.1433C92.2816 22.9608 90.5682 21.2527 90.4028 21.3696C90.1962 21.4861 90.0811 25.5433 90.1241 30.3898C90.1454 37.9153 90.0931 39.2938 89.5559 39.6047C89.2254 39.799 86.592 39.9746 83.7135 39.9513C78.9435 39.9127 78.4507 39.8299 78.0449 39.1568Z" fill="white"/>
<path d="M0.418715 1.6894L1.44897 1.42195C2.93285 1.00058 11.4032 1.14801 12.2632 1.58837C12.8772 1.94794 12.9533 2.69715 12.9083 8.2521L12.8572 14.5556L13.9245 14.8006C15.1148 15.0861 21.3674 14.8609 21.7404 14.5094C21.8647 14.3922 22.0515 11.6357 22.0777 8.4052C22.1954 4.03281 22.3732 2.37947 22.7886 1.87064C23.2865 1.32309 24.1096 1.25096 28.7556 1.3674L28.8004 1.36877C34.0189 1.52825 34.143 1.53204 34.6271 2.51815C35.3561 3.90304 35.1147 38.7696 34.3688 39.4727C33.6228 40.1759 23.1784 40.0519 22.5673 39.3377C22.3231 39.0205 22.0981 36.3395 22.0879 32.5177L22.0153 26.2526L12.9687 26.1793L13.0439 32.1293C13.135 36.1093 12.9931 38.3933 12.6597 38.9422C12.2006 39.7659 11.9539 39.7639 6.36206 39.6398L0.52381 39.4743L0.288634 32.9715C0.153196 29.385 0.0987834 20.8743 0.236246 14.0593L0.418715 1.6894Z" fill="white"/>
<path fill-rule="evenodd" clip-rule="evenodd" d="M49.7753 0.710312C46.4406 1.15609 42.1883 3.2098 40.982 4.8942C39.3177 7.28409 39.1825 8.74077 39.2063 21.0336C39.2266 33.7598 39.3047 34.2726 41.712 36.6167C44.6089 39.4375 50.8488 40.7882 59.0357 40.3818C64.0959 40.147 67.7219 39.2702 69.9131 37.8301C73.7999 35.2219 74.0979 33.9635 74.0066 19.8578C73.9465 6.97365 73.7875 6.30258 70.6836 3.63767C68.0697 1.41012 65.402 0.758116 58.207 0.542225C54.918 0.436779 51.1342 0.484926 49.7753 0.710312ZM61.2558 20.1485C61.1087 12.9372 61.0341 11.991 60.3389 11.5125C59.5212 10.9149 54.7518 10.7975 53.3081 11.3374C52.813 11.5304 52.2737 12.117 52.1462 12.6281C51.9775 13.139 51.9055 16.9601 51.9539 21.1369C52.0092 26.553 51.9721 28.6032 52.9702 29.3857C53.6277 29.9012 54.7343 29.8667 56.6122 29.8819C59.1206 29.9022 59.7384 29.789 60.4843 29.0859C61.3546 28.2655 61.3976 28.0295 61.2558 20.1485Z" fill="white"/>
</svg>
