<svg width="151" height="41" viewBox="0 0 151 41" fill="none" xmlns="http://www.w3.org/2000/svg">
<path d="M117.581 6.88438C118.969 4.25417 121.134 2.73443 124.576 1.93502C126.816 1.40163 129.176 1.26353 136.543 1.32476C145.235 1.35758 145.773 1.40147 146.181 2.11459C146.792 3.26311 146.648 10.6352 146.023 11.1425C145.732 11.3373 142.211 11.6234 138.195 11.7478C134.179 11.8721 130.701 12.0798 130.492 12.2358C129.244 12.9745 129.068 14.3137 129.299 21.3734C129.461 26.816 129.652 28.6313 130.146 29.0691C130.556 29.5062 131.548 29.6328 133.908 29.5735L137.054 29.4814L137.216 24.9878C137.278 22.4649 137.587 20.22 137.837 19.9461C138.172 19.5545 139.745 19.4493 143.802 19.483C148.851 19.525 149.347 19.608 149.755 20.2817C150 20.7569 150.133 24.622 150.087 30.1417C150.014 38.8944 149.97 39.2489 149.139 39.6362C147.85 40.2958 125.048 39.7515 122.985 39.0246C120.797 38.2572 118.414 36.1477 117.438 34.1287C116.664 32.5451 116.59 31.5193 116.557 20.5972L116.531 8.80768L117.581 6.88438Z" fill="#F6F6F6"/>
<path d="M99.7732 8.07696C99.8214 2.28128 99.8641 2.12393 100.778 1.77666C102.314 1.19799 110.715 1.3861 111.62 2.02449C112.32 2.50345 112.393 3.60808 112.417 20.7205C112.464 34.9942 112.347 39.0544 111.929 39.5241C111.511 39.9938 110.31 40.1021 105.882 40.0653C99.3008 40.0106 99.5065 40.17 99.5497 34.9658L99.5789 31.4568L95.2333 26.4132C92.8554 23.6728 90.7209 21.5259 90.4716 21.6421C90.222 21.7978 90.1534 25.0698 90.2346 30.2357C90.3849 37.0582 90.288 38.7528 89.8275 39.3799C89.2839 40.0456 88.6624 40.1193 84.0269 40.0808C79.9708 40.0471 78.6887 39.9182 78.2374 39.4413C77.7036 38.9242 77.6014 36.2816 77.7315 20.6294C77.7733 10.6147 77.9259 2.21759 78.0934 1.98241C78.2609 1.74723 80.2489 1.60604 82.9392 1.6284L87.5746 1.66693L89.832 3.97257C92.254 6.39787 96.7256 11.206 98.1184 12.9524C98.5691 13.5082 99.1446 13.9861 99.3515 13.9878C99.5585 13.9895 99.7453 11.4282 99.7732 8.07696Z" fill="#F6F6F6"/>
<path d="M0.246093 20.7345C0.209646 5.19916 0.274618 2.3608 0.816599 1.89215C1.2758 1.42282 2.55951 1.35464 7.0288 1.47064L12.698 1.63604L12.8503 8.22197C13.1402 18.1605 13.9259 18.2459 18.3096 8.74049C19.9109 5.32347 21.5506 2.26163 21.9254 1.98874C22.9249 1.2479 33.5611 1.41515 33.8446 2.16666C33.9661 2.4831 32.8241 5.4308 31.3069 8.6908C29.7894 11.9902 28.5235 14.8975 28.5209 15.2129C28.5182 15.5283 28.806 15.7672 29.1785 15.7703C30.5443 15.7817 32.9721 17.4973 33.9106 19.1217C34.8498 20.6673 34.8875 21.1013 34.939 29.855L35.0285 39.0033L34.0713 39.6262C33.3224 40.0931 32.0381 40.2402 28.3959 40.2099C25.8298 40.1886 23.3481 39.9708 22.8945 39.7699C22.1941 39.3698 22.1156 38.8565 22.1609 33.4157C22.1884 30.1039 22.006 27.1452 21.8027 26.7098C21.3944 26.0361 20.8984 25.9531 17.2562 25.9228L13.1174 25.8884L13.0623 32.512C13.024 37.1249 12.8404 39.292 12.5066 39.6047C11.7975 40.2691 1.24342 40.1814 0.669883 39.4669C0.423846 39.1888 0.276214 32.0509 0.246093 20.7345Z" fill="#F6F6F6"/>
<path fill-rule="evenodd" clip-rule="evenodd" d="M51.8213 0.620617C45.1538 1.03835 41.4148 2.70272 39.5652 6.11767L38.5137 8.11983L38.4167 19.79C38.3024 33.5498 38.5005 34.6161 41.3773 37.0846C44.1721 39.4736 46.4853 40.0448 53.9746 40.3436C61.3815 40.6023 64.282 40.2321 67.9383 38.5671C70.639 37.3278 71.9749 35.9589 72.7382 33.7572C73.248 32.1843 73.3943 9.5926 72.871 7.81394C71.221 2.16187 64.3281 -0.182304 51.8213 0.620617ZM60.3457 20.8003C60.3965 14.6892 60.291 12.4409 59.8814 11.9249C59.1446 10.933 54.5528 10.6189 52.6837 11.3919L51.313 11.972L51.2429 20.4092C51.1918 26.5555 51.0956 28.7507 52.1293 29.5386C52.7799 30.0344 53.8779 29.973 55.7163 29.9882C57.5758 30.0037 58.6767 30.079 59.3327 29.5891C60.3559 28.8251 60.2968 26.686 60.3457 20.8003Z" fill="#F6F6F6"/>
</svg>
