<svg width="239" height="231" viewBox="0 0 239 231" fill="none" xmlns="http://www.w3.org/2000/svg">
<path fill-rule="evenodd" clip-rule="evenodd" d="M115.667 48.0938C124.455 45.426 131.227 44.3159 139.756 44.0838C144.692 43.9336 146.738 43.9822 152.464 44.4864C155.914 44.7691 157.452 45.0064 161.358 45.8686C161.516 45.9012 161.714 45.9425 161.94 45.9895C162.764 46.1608 163.954 46.4084 164.898 46.5884C166.134 46.8185 167.667 47.2563 168.298 47.5389C168.962 47.8223 169.795 48.0763 170.131 48.0843C170.734 48.0986 175.227 49.6773 179.68 51.4892C182.008 52.4143 186.65 54.7659 190.953 57.2432C196.019 60.1401 204.592 66.4989 207.112 69.2015C215.945 78.7778 217.738 80.9947 221.681 87.3104C223.977 90.9777 225.649 94.0281 226.956 96.9359C228.742 100.859 229.948 103.764 229.941 104.065C229.937 104.232 230.095 104.637 230.255 104.976C231.607 107.383 234.265 118.385 235.2 125.632C236.078 132.444 235.787 144.68 234.552 151.474C234.088 154.039 233.624 156.604 233.544 157.171C233.43 157.737 233.102 158.833 232.814 159.629C232.528 160.391 232.27 161.355 232.26 161.756C232.235 162.826 228.321 173.605 227.738 174.126C227.463 174.387 227.252 174.817 227.245 175.084C227.228 175.82 223.331 183.053 221.523 185.686C221.001 186.476 220.582 187.169 220.58 187.269C220.577 187.37 220.297 187.865 219.916 188.357C216.482 193.059 214.854 195.228 214.512 195.488C214.307 195.65 213.376 196.698 212.444 197.78C208.956 201.912 199.184 210.678 198.144 210.653C197.507 210.638 194.923 207.834 194.938 207.199C194.946 206.864 195.087 206.566 195.256 206.504C196.611 206.001 206.871 196.477 209.91 192.869C212.431 189.852 215.239 186.072 215.249 185.671C215.253 185.504 215.391 185.306 215.527 185.242C215.696 185.18 216.739 183.666 217.823 181.852C218.906 180.038 219.953 178.323 220.161 178.06C220.335 177.797 220.651 177.202 220.864 176.739C220.994 176.4 221.292 175.797 221.581 175.213C221.688 174.998 221.793 174.785 221.888 174.589C224.071 170.259 226.855 163.267 226.883 162.097C226.891 161.762 227.225 160.399 227.593 159.07C229.272 153.356 229.31 153.156 230.139 146.519C231.216 137.948 230.81 128.204 229.039 119.398C228.109 114.759 226.1 107.52 225.548 106.77C225.384 106.599 225.1 105.823 224.883 105.082C224.17 102.623 220.037 94.3629 217.514 90.3892C213.407 83.8689 208.68 78.0698 203.298 72.9577C199.852 69.6979 194.85 65.5314 193.623 64.9335C193.358 64.7934 192.101 63.9942 190.813 63.1273C188.204 61.3592 180.98 57.5413 177.724 56.1593C174.999 55.0241 169.341 53.0497 166.076 52.0689C154.914 48.726 138.957 48.0455 127.358 50.3789C127.11 50.4287 126.769 50.4987 126.38 50.5786C125.6 50.7385 124.626 50.9383 123.817 51.0975C121.153 51.6363 112.975 54.051 112.462 54.4402C112.257 54.6026 111.071 55.0762 109.819 55.5147C104.913 57.2044 95.8313 62.3406 89.8891 66.6818C86.712 69.0481 75.4835 79.7865 75.4668 80.4886C75.4636 80.6223 75.1874 80.9503 74.8783 81.244C74.1254 81.8616 72.0168 84.4541 72.0112 84.6882C72.0088 84.7885 71.1034 86.1719 70.0256 87.7519C68.9142 89.3311 67.8004 91.0106 67.521 91.4723C66.4001 93.4527 63.692 98.6736 63.2641 99.7338C63.0143 100.363 62.6622 101.058 62.4889 101.288C61.9707 101.911 58.2659 112.36 58.246 113.196C58.2357 113.63 58.0505 114.362 57.8366 114.892C57.4454 115.819 57.3336 116.285 56.2547 122.147C54.9434 129.307 54.7698 140.844 55.9404 148.064C56.0547 148.844 56.1914 149.716 56.3143 150.498C56.4397 151.297 56.5507 152.004 56.6084 152.428C57.6017 158.64 60.9558 168.588 64.3191 175.325C66.5299 179.726 70.2772 185.836 72.1045 188.021C72.7258 188.704 73.213 189.385 73.209 189.552C73.2011 189.886 76.1424 193.201 80.2673 197.547L83.7716 201.177L82.2554 202.847C81.4282 203.764 80.5379 204.512 80.2696 204.505C79.6324 204.49 71.6774 196.106 69.2375 192.87C68.1969 191.473 66.7361 189.398 66.0237 188.311C65.5798 187.612 65.0977 186.872 64.7349 186.316C64.5162 185.981 64.3409 185.712 64.2435 185.559C63.984 185.185 63.4672 184.336 63.1126 183.726C62.9353 183.42 62.7015 183.022 62.4677 182.623C62.2339 182.225 62.0001 181.826 61.8228 181.521C60.8204 179.925 57.624 173.225 56.8684 171.133C56.4898 170.121 55.8899 168.534 55.5424 167.623C50.3058 153.583 48.738 136.251 51.3364 121.528C51.6275 119.973 51.9059 118.391 52.1005 117.284C52.2144 116.637 52.2996 116.153 52.342 115.932C52.4242 115.298 52.7522 114.202 53.0388 113.44C53.3254 112.677 53.5833 111.713 53.5928 111.312C53.6166 110.309 56.5639 102.083 57.9427 99.139C60.3465 94.0112 62.4869 90.0815 65.449 85.4688C66.9132 83.162 69.6518 79.4806 69.853 79.4854C69.9872 79.4886 70.1269 79.2577 70.1333 78.9903C70.1396 78.7228 70.2458 78.4912 70.4135 78.4952C70.5476 78.4984 71.3389 77.6809 72.1685 76.6637C75.727 72.3662 83.1079 65.3832 86.9988 62.6324C87.4369 62.356 88.6285 61.5075 89.82 60.6591C90.0183 60.5179 90.2166 60.3767 90.4115 60.2381C97.5107 55.222 106.744 50.7584 115.667 48.0938Z" fill="white"/>
<path d="M139.119 52.2582C138.579 52.3128 136.756 52.5054 135.07 52.6338C127.209 53.3906 118.815 55.3143 112.9 57.7351C109.331 59.2006 104.566 61.4128 103.371 62.1258C102.722 62.5148 101.185 63.422 99.9575 64.1006C97.1259 65.6847 92.3999 69.0774 89.0332 71.9296C85.9412 74.5523 80.0441 80.4787 80.0321 80.9839C80.0289 81.1187 79.7854 81.4499 79.477 81.6785C76.4924 84.0342 68.1586 97.5869 66.2065 103.236C65.8797 104.24 65.3815 105.374 65.1708 105.739C64.9265 106.104 64.5685 107.006 64.3153 107.741C62.7485 112.76 62.3817 114.032 61.8907 116.278C58.5 131.465 59.0591 146.173 63.6578 160.876C66.2235 169.059 72.0213 180.049 77.2208 186.476C86.0481 197.47 94.5717 204.245 107.914 210.831C110.775 212.247 118.085 214.848 121.599 215.707C127.255 217.088 126.552 216.937 131.146 217.686C135.203 218.356 146.812 218.531 151.268 217.996C161.159 216.816 169.597 214.455 178.073 210.477C180.899 209.163 183.419 207.942 183.659 207.745C183.899 207.549 184.651 207.095 185.367 206.708C190.923 203.806 199.924 196.168 205.877 189.299C208.057 186.789 210.908 182.981 210.918 182.577C210.92 182.476 211.233 182.079 211.578 181.716C212.44 180.827 213.108 179.663 216.099 174.207C218.704 169.416 222.473 159.529 223.494 154.835C224.779 148.9 224.702 149.336 225.357 143.016C226.102 135.753 225.667 125.733 224.335 119.467C223.395 115.096 221.282 107.699 220.197 105.179C218.192 100.312 217.135 98.0623 215.874 95.8753C215.132 94.5432 214.389 93.2111 214.295 92.9393C214.166 92.6666 213.257 91.2632 212.281 89.8581C211.304 88.4531 209.971 86.5003 209.353 85.5756C207.437 82.6315 196.924 71.765 193.748 69.4314C191.928 68.0737 184.533 63.4153 183.301 62.8468C182.935 62.6696 182.403 62.3873 182.138 62.2125C181.442 61.7241 176.584 59.3505 176.315 59.3441C176.214 59.3417 175.314 58.9495 174.383 58.4893C171.787 57.2479 164.47 54.9169 161.621 54.411C161.252 54.3349 160.046 54.104 158.941 53.8755C157.098 53.4946 155.992 53.2998 153.241 52.8974C151.564 52.6553 140.199 52.1154 139.119 52.2582ZM153.795 57.9323C154.365 58.0133 156.175 58.3596 157.817 58.6683C162.979 59.5999 170.096 61.825 173.956 63.7031C175.121 64.27 176.153 64.7327 176.254 64.7351C176.658 64.7447 182.339 67.9131 184.892 69.5242C187.146 70.9933 192.142 74.6509 192.601 75.2011C192.698 75.3382 194.411 76.9293 196.388 78.7289C198.398 80.5629 200.764 82.9784 201.646 84.0779C202.563 85.1782 203.805 86.7244 204.46 87.5151C209.236 93.3245 214.719 103.397 216.396 109.335C216.551 109.878 216.802 110.659 216.928 111.033C217.597 112.599 218.921 117.787 219.331 120.392C219.597 121.949 219.976 124.385 220.213 125.772C220.449 127.16 220.651 131.411 220.661 135.22C220.722 142.568 220.244 147.107 218.636 153.877C217.85 157.161 214.279 167.221 213.225 169.083C212.873 169.715 212.343 170.781 212.058 171.415C211.383 172.915 209.491 176.038 207.782 178.559C207.049 179.654 206.245 180.882 206 181.28C204.875 183.31 196.55 192.245 193.806 194.404C192.948 195.058 191.3 196.434 190.132 197.418C188.963 198.435 187.695 199.416 187.32 199.609C186.978 199.803 185.953 200.453 185.065 201.005C184.209 201.591 183.39 202.077 183.289 202.075C183.188 202.072 182.607 202.429 182.025 202.853C180.416 203.995 174.829 206.76 171.228 208.158C160.254 212.413 146.542 214.311 135.26 213.099C130.19 212.574 129.386 212.42 123.728 211.106C116.899 209.528 105.802 204.782 100.802 201.293C99.808 200.629 98.9461 200.069 98.8452 200.067C98.7779 200.065 98.1483 199.646 97.4883 199.091C96.8274 198.569 96.1329 198.047 95.9343 197.908C84.2033 188.697 75.9047 178.12 70.9407 166.037C70.368 164.641 69.6366 162.838 69.3186 162.055C68.5232 160.115 66.6648 153.33 66.0969 150.317C63.5905 136.81 64.2184 125.972 68.3357 111.376C68.8868 109.434 69.5372 107.562 69.7815 107.197C70.0258 106.832 70.5945 105.565 71.0607 104.363C72.207 101.458 76.0086 94.4707 77.9959 91.5857C83.9227 82.9975 92.2982 74.7709 100.158 69.8349C101.012 69.2822 101.902 68.663 102.143 68.4329C102.384 68.2363 102.759 68.043 102.961 68.0478C103.162 68.0526 103.81 67.6973 104.393 67.273C106.584 65.7074 114.679 62.1925 120.004 60.5328C124.243 59.2181 132.831 57.636 137.145 57.4016C140.111 57.2362 152.053 57.5875 153.795 57.9323Z" fill="white"/>
<path d="M137.173 63.0706C126.541 63.9475 119.787 65.723 110.432 70.1432C104.62 72.8728 102.313 74.1125 101.067 75.1673C100.721 75.464 100.377 75.6936 100.308 75.6925C100.206 75.691 99.7222 76.0527 99.203 76.5145C98.6837 76.9763 97.4063 77.8963 96.3719 78.5516C94.1308 79.9602 87.9639 85.7716 84.9384 89.3494C83.7561 90.7406 82.7817 91.9338 82.7802 92.0344C82.7792 92.1015 82.324 92.8328 81.766 93.5961C81.2075 94.3929 80.8206 95.1252 80.8869 95.2604C81.0534 95.5315 89.6919 95.5299 97.9244 95.2873C111.486 94.8916 121.698 94.6793 125.42 94.7029C130.302 94.7443 129.784 95.072 131.421 90.7682C134.234 83.2608 141.166 63.2326 140.997 63.0622C140.829 62.8918 139.327 62.8688 137.173 63.0706ZM133.467 68.752C133.699 69.1583 126.705 88.8165 126.151 89.3449C125.562 89.8728 101.687 90.3785 101.217 89.9015C101.015 89.697 101.629 87.5252 102.735 84.4213C104.127 80.4828 104.763 79.1168 105.454 78.5569C105.973 78.1286 106.524 77.8015 106.695 77.8041C106.9 77.8073 107.348 77.5121 107.729 77.1824C108.525 76.4564 110.343 75.9474 110.336 76.4171C110.333 76.5848 109.617 78.7215 108.726 81.1911C107.834 83.6607 107.117 85.8645 107.113 86.1329C107.108 86.4684 108.097 86.5507 112.504 86.417C115.442 86.3279 118.96 86.2477 120.257 86.2677L122.647 86.2708L124.678 80.765C125.783 77.7282 126.713 74.9907 126.718 74.6552C126.763 73.9177 125.534 73.8988 123.03 74.6322L121.178 75.1742L120.074 78.1774L118.969 81.1807L116.954 81.2504C115.86 81.3007 114.803 81.1838 114.635 81.0134C114.4 80.7749 116.945 72.9279 117.288 72.7989C117.357 72.7664 118.045 72.4414 118.837 72.0173C119.628 71.6268 120.589 71.306 120.965 71.3117C121.34 71.3175 121.718 71.1891 121.823 71.0229C121.927 70.8903 122.648 70.6664 123.435 70.5443C124.222 70.4222 125.044 70.2334 125.251 70.1024C125.527 69.9388 130.494 68.9077 133.061 68.5109C133.197 68.513 133.366 68.6163 133.467 68.752ZM146.114 63.4093C145.905 63.641 145.016 65.9764 144.087 68.6467C143.158 71.3171 141.946 74.6878 141.411 76.1562C140.876 77.6245 139.235 82.1967 137.806 86.3359C136.377 90.4751 135.161 94.0472 135.055 94.2804C134.913 94.6138 135.492 94.6899 137.748 94.5567C139.32 94.4802 145.843 94.3455 152.229 94.2758C158.616 94.1726 165.754 94.0809 168.11 94.0164C170.467 93.9519 177.981 93.8325 184.845 93.7701C197.549 93.6297 202.605 93.4389 202.61 93.137C202.611 93.0363 201.54 91.644 200.232 90.0802C197.483 86.7829 192.978 82.2505 190.01 79.8558C187.345 77.7008 179.708 72.5497 179.162 72.5413C179.025 72.5392 178.653 72.3322 178.383 72.0931C177.911 71.7167 176.115 70.8502 170.961 68.4891C169.503 67.8291 163.183 65.8192 160.36 65.1047C155.462 63.8549 146.601 62.8127 146.114 63.4093ZM153.713 68.8282C157.017 69.3152 162.97 70.7825 163.374 71.1914C163.542 71.3618 162.998 73.434 162.035 76.0703L160.394 80.6425L158.244 80.6095C157.049 80.5911 155.993 80.4407 155.893 80.2714C155.793 80.102 156.014 79.0987 156.405 78.0644C157.439 75.1943 157.44 75.1272 155.062 74.3859C153.838 74.0316 152.85 73.8822 152.677 74.0473C152.226 74.4766 148.442 85.2241 148.642 85.5292C148.708 85.6645 150.277 85.7557 152.122 85.6833C153.933 85.644 157.348 85.5623 159.671 85.5308C161.993 85.4658 163.941 85.3615 164.011 85.2955C164.114 85.23 165.112 82.5271 166.287 79.3572C167.892 74.8851 168.528 73.519 169.007 73.4592C169.896 73.3386 172.169 74.3467 172.398 74.9878C172.66 75.6966 168.127 88.4796 167.473 88.8051C166.509 89.3273 142.773 89.7009 142.474 89.1929C142.307 88.9219 148.989 69.6281 149.548 68.7642C149.829 68.2987 150.375 68.3071 153.713 68.8282ZM179.512 78.6207C181.167 79.7871 181.166 79.8542 180.196 83.0273C179.943 83.8959 179.795 84.6655 179.896 84.7677C179.963 84.8358 182.043 85.0356 184.464 85.207L188.898 85.51L190.177 86.7377C190.849 87.4192 191.385 88.1322 191.313 88.3324C191.136 88.7995 174.023 89.2078 173.655 88.7323C173.42 88.4267 175.822 80.9802 177.062 78.1133C177.415 77.3133 177.721 77.3851 179.512 78.6207ZM120.074 98.1779C117.303 98.5381 113.759 100.262 112.747 101.69C111.35 103.715 111.229 104.955 111.17 115.424C111.106 126.262 111.168 126.7 113.152 128.71C115.539 131.129 120.71 132.316 127.51 132.018C131.712 131.848 134.728 131.122 136.556 129.908C139.799 127.71 140.055 126.64 140.069 114.626C140.101 103.654 139.973 103.081 137.413 100.793C135.257 98.881 133.047 98.3101 127.075 98.0841C124.345 97.9751 121.203 97.9939 120.074 98.1779ZM128.775 107.439C129.349 107.851 129.405 108.657 129.481 114.799C129.549 121.512 129.512 121.713 128.784 122.406C128.16 123.001 127.647 123.094 125.564 123.062C121.639 123.001 121.772 123.238 121.753 115.587C121.739 112.029 121.823 108.776 121.966 108.341C122.075 107.907 122.527 107.41 122.939 107.249C124.141 106.798 128.1 106.926 128.775 107.439ZM186.469 99.1643C181.789 99.3609 180.417 99.7425 178.376 101.456C175.816 103.598 175.669 104.301 175.608 114.938C175.557 120.474 175.659 124.939 175.885 125.815C176.431 128.071 178.786 130.356 181.368 131.167C183.169 131.732 184.499 131.82 192.625 131.877C197.712 131.888 202.117 131.855 202.46 131.76C203.009 131.6 203.054 130.896 203.169 123.415C203.287 115.732 203.261 115.195 202.651 114.883C202.245 114.642 200.334 114.579 197.533 114.67C192.306 114.825 192.757 114.362 192.538 119.728L192.416 123.25L189.957 123.313C186.063 123.42 186.096 123.455 186.219 115.47C186.317 109.095 186.353 108.928 187.078 108.436C187.699 108.009 188.93 107.927 193.436 107.996C196.61 108.045 199.309 107.952 199.688 107.757C200.273 107.43 200.348 107.029 200.397 103.808C200.428 101.829 200.285 99.9806 200.119 99.7096C199.752 99.0999 193.508 98.8698 186.469 99.1643ZM143.856 99.248C143.302 99.7764 142.802 130.072 143.299 131.086C143.631 131.662 144.04 131.735 148 131.796C150.389 131.832 152.576 131.698 152.852 131.535C153.3 131.273 153.352 130.099 153.382 123.69C153.377 119.563 153.499 116.108 153.671 116.01C153.809 115.911 155.221 117.376 156.797 119.246C161.726 125.127 161.294 124.315 161.14 127.669C160.973 131.861 161.142 131.998 166.433 132.079C169.949 132.133 170.565 132.042 171.051 131.546C171.572 130.983 171.661 129.642 171.794 118.705C171.863 111.994 171.87 104.913 171.763 102.965L171.612 99.4395L167.04 99.2686C163.968 99.1543 162.328 99.2297 162.017 99.4934C161.637 99.7896 161.516 100.996 161.459 104.686C161.418 107.37 161.248 109.515 161.078 109.513C160.805 109.509 159.025 107.568 155 102.876C154.362 102.128 153.254 100.936 152.548 100.22L151.27 98.9592L147.788 98.9057C145.501 98.8706 144.133 98.9838 143.856 99.248ZM79.9493 98.5012L79.0923 98.7229L78.8622 109.257C78.7048 115.06 78.6958 122.308 78.7855 125.363L78.9394 130.903L83.7852 131.078C88.4267 131.216 88.6315 131.219 89.0178 130.521C89.2981 130.055 89.4304 128.111 89.3801 124.721L89.3555 119.653L96.8654 119.768L96.8859 125.104C96.87 128.359 97.0398 130.644 97.2405 130.915C97.7433 131.527 106.413 131.694 107.037 131.099C107.661 130.505 108.083 100.813 107.486 99.6289C107.09 98.7839 106.987 98.7823 102.619 98.6145C98.763 98.4882 98.0792 98.5448 97.6624 99.0082C97.3143 99.4391 97.1561 100.846 97.0306 104.569C96.9884 107.32 96.8158 109.667 96.7118 109.766C96.3999 110.063 91.2077 110.218 90.2213 109.968L89.3368 109.753L89.4193 104.385C89.492 99.6545 89.4335 99.016 88.9261 98.7062C88.2149 98.3261 81.1839 98.151 79.9493 98.5012ZM121.395 134.441C115.893 134.759 112.798 136.154 111.251 139.05L110.372 140.748L110.219 150.679C110.039 162.388 110.196 163.296 112.554 165.413C114.844 167.462 116.748 167.961 122.924 168.257C129.032 168.519 131.426 168.22 134.453 166.824C136.688 165.784 137.798 164.627 138.442 162.757C138.872 161.421 139.133 142.197 138.712 140.68C137.387 135.861 131.716 133.828 121.395 134.441ZM127.973 144.106C128.307 144.547 128.38 146.461 128.3 151.661C128.174 159.881 128.35 159.515 124.425 159.455C120.499 159.394 120.664 159.799 120.795 151.278L120.905 144.098L122.039 143.612C123.586 142.965 127.371 143.258 127.973 144.106ZM181.397 135.967C178.553 136.628 176.758 137.909 175.597 140.139L174.718 141.77L174.666 151.803C174.626 161.098 174.681 161.972 175.309 163.324C176.102 165.047 178.054 166.856 179.854 167.521C181.551 168.151 200.356 168.742 201.423 168.188C202.111 167.863 202.149 167.561 202.264 160.113C202.336 155.416 202.25 152.126 202.051 151.721C201.719 151.145 201.31 151.072 197.145 151.008C193.8 150.956 192.501 151.037 192.223 151.368C192.015 151.6 191.746 153.509 191.679 155.655L191.518 159.478L188.922 159.539C186.975 159.576 186.158 159.463 185.822 159.089C185.418 158.714 185.271 157.168 185.171 152.535C185.025 146.526 185.179 145.387 186.213 144.766C186.385 144.634 189.256 144.477 192.569 144.393C195.883 144.31 198.788 144.086 199.03 143.922C199.548 143.494 199.713 137.221 199.216 136.24C198.884 135.631 198.441 135.591 191.272 135.514C185.195 135.421 183.247 135.525 181.397 135.967ZM161.768 135.699C161.012 135.989 160.976 136.123 160.9 141.055C160.857 143.906 160.687 146.085 160.516 146.082C160.345 146.08 159.874 145.67 159.505 145.194C158.367 143.7 154.709 139.584 152.726 137.506L150.879 135.531L147.055 135.473C144.836 135.439 143.196 135.548 143.056 135.747C142.917 135.946 142.739 143.091 142.642 151.613C142.437 164.933 142.505 167.182 142.942 167.625C143.311 168.033 144.368 168.15 147.713 168.202C151.537 168.261 152.05 168.201 152.502 167.638C152.886 167.107 152.977 165.665 152.895 159.858C152.86 155.462 152.937 152.677 153.144 152.546C153.35 152.449 155.097 154.288 157.042 156.633L160.595 160.95L160.549 163.936C160.481 168.364 160.312 168.228 165.74 168.311C169.393 168.367 170.384 168.282 170.732 167.884C171.079 167.487 171.2 164.032 171.251 151.885C171.338 137.322 171.284 136.382 170.71 135.97C169.967 135.422 163.039 135.215 161.768 135.699ZM79.3167 135.237C78.8667 135.633 78.7955 138.048 78.729 151.269C78.6834 160.899 78.7608 166.975 78.962 167.213C79.4307 167.824 88.1354 167.958 88.7245 167.396C89.0017 167.132 89.1666 165.289 89.2269 161.364L89.3135 155.727L92.7271 155.78C95.7311 155.826 96.1397 155.899 96.4723 156.475C96.6373 156.846 96.7693 159.365 96.726 162.183C96.6549 166.813 96.7165 167.251 97.2916 167.595C97.6645 167.768 99.7102 167.968 101.827 168C104.831 168.046 105.891 167.928 106.512 167.535L107.305 167.011L107.288 159.225C107.3 151.775 107.271 151.405 106.506 150.085C105.742 148.697 103.751 147.224 102.624 147.206C102.317 147.202 102.081 146.997 102.085 146.728C102.089 146.46 103.151 143.993 104.424 141.194C105.695 138.428 106.656 135.926 106.557 135.656C106.328 135.015 97.5562 134.813 96.7272 135.438C96.4163 135.668 95.0448 138.264 93.7028 141.163C90.0279 149.228 89.3804 149.151 89.203 140.691L89.1184 135.086L84.4433 134.913C80.7576 134.79 79.6983 134.841 79.3167 135.237ZM200.956 176.369C200.644 176.633 191.9 176.834 170.078 177.103C161.813 177.211 154.948 177.374 154.843 177.506C154.427 177.902 143.537 208.911 143.74 209.048C144.045 209.187 149.651 208.803 153.208 208.388C163.881 207.109 176.971 201.806 186.811 194.743C189.676 192.673 195.876 186.962 198.863 183.652C201.053 181.169 204.088 176.954 203.888 176.615C203.755 176.378 201.198 176.171 200.956 176.369ZM183.827 182.28C183.818 182.851 180.147 192.895 179.799 193.293C179.451 193.724 174.973 196.306 174.597 196.3C174.153 196.293 174.48 195.057 176.051 190.584C176.978 188.014 177.626 185.843 177.559 185.741C177.458 185.673 173.941 185.652 169.741 185.722L162.09 185.873L160.736 189.543C159.954 191.545 159.061 194.115 158.703 195.217C158.344 196.319 157.951 197.487 157.81 197.787C157.598 198.254 157.732 198.39 158.312 198.399C159.405 198.416 162.868 197.462 163.319 196.999C163.527 196.801 164.059 195.501 164.524 194.132C164.955 192.763 165.521 191.463 165.729 191.264C166.318 190.669 169.565 190.484 170.001 190.994C170.269 191.301 169.943 192.537 168.943 195.408C168.159 197.577 167.516 199.413 167.516 199.413C167.515 199.446 166.519 199.867 165.248 200.318C160.853 201.962 151.603 203.934 151.204 203.256C150.903 202.815 158.248 182.592 158.763 182.399C159.999 181.981 183.833 181.844 183.827 182.28ZM142.243 177.581C138.895 177.697 104.572 178.244 90.6719 178.433C86.2668 178.466 82.5428 178.61 82.4042 178.742C82.2661 178.841 82.8982 179.925 83.8355 181.147C86.4124 184.542 88.7995 186.962 94.8641 192.256C96.1779 193.417 102.834 198.016 104.493 198.914C105.069 199.225 106.558 200.054 107.777 200.71C110.317 202.091 118.63 205.508 119.449 205.52C119.756 205.525 121.15 205.916 122.543 206.407C123.935 206.898 125.431 207.29 125.909 207.297C126.353 207.304 127.102 207.45 127.543 207.625C129.071 208.218 138.173 209.13 138.589 208.7C138.762 208.569 143.044 196.587 147.399 184.238C148.506 181.067 149.403 178.262 149.407 177.96C149.416 177.423 148.733 177.379 142.243 177.581ZM142.155 183.318C142.148 183.788 139.967 190.164 136.471 199.909L135.151 203.58L133.104 203.482C132.012 203.431 130.24 203.203 129.219 202.986C125.034 202.049 121.703 201.058 121.401 200.684C121.167 200.412 121.565 198.908 122.635 195.972L124.203 191.667L125.845 191.491C126.768 191.404 127.86 191.454 128.267 191.595L128.98 191.874L128.122 194.412C127.656 195.814 127.26 197.15 127.257 197.385C127.252 197.653 127.795 197.93 128.543 198.076C129.225 198.187 130.28 198.405 130.859 198.514L131.948 198.732L133.947 193.092C135.052 190.021 135.949 187.216 135.954 186.914C135.961 186.411 135.381 186.369 128.722 186.434C124.727 186.473 121.208 186.621 120.933 186.751C120.657 186.914 119.488 189.648 118.346 192.886C117.026 196.59 116.07 198.757 115.797 198.753C114.739 198.736 112.234 197.356 112.242 196.785C112.256 195.913 116.538 183.898 116.989 183.435C117.508 182.94 120.037 182.811 131.58 182.686C136.565 182.662 140.664 182.59 140.733 182.524C141.044 182.261 142.161 182.882 142.155 183.318ZM110.54 183.101C111.321 183.415 111.245 183.917 109.353 189.257C108.141 192.628 107.435 194.127 107.058 194.189C106.476 194.314 103.429 192.623 103.435 192.22C103.437 192.052 103.76 191.084 104.152 190.016C105.328 186.813 105.496 186.983 100.718 186.809C98.4316 186.741 96.25 186.506 95.8775 186.299C94.7934 185.745 93.251 183.909 93.5629 183.612C93.7361 183.447 97.3928 183.235 101.696 183.166C106.034 183.065 109.655 182.953 109.792 182.955C109.894 182.923 110.235 182.996 110.54 183.101ZM87.3156 205.765C86.9334 206.195 86.1675 207.157 85.6436 207.92C84.3863 209.747 84.5772 210.656 86.536 212.062C88.293 213.263 88.4632 213.299 89.0223 212.469C89.4065 211.905 89.3414 211.702 88.4631 211.085C87.2476 210.193 87.1891 209.555 88.3015 208.263L89.1022 207.269L90.149 208.023C91.3982 208.948 91.6371 208.952 92.162 208.121C92.5463 207.557 92.4806 207.388 91.5015 206.668C89.1393 204.853 88.3226 204.673 87.3156 205.765ZM91.7127 210.698C90.8371 212.128 90.1338 213.459 90.1307 213.661C90.122 214.231 92.3461 216.144 93.2983 216.394C95.033 216.823 95.5844 216.496 97.1964 213.803C98.7029 211.309 98.7732 211.176 98.1655 210.73C97.1191 209.942 96.8093 210.105 95.4088 212.366C94.1123 214.527 93.699 214.756 93.099 213.807C92.8993 213.468 93.1496 212.734 94.0588 211.338L95.3186 209.344L94.6111 208.729C94.2061 208.421 93.7664 208.146 93.5957 208.143C93.4251 208.141 92.5878 209.302 91.7127 210.698ZM189.086 211.12C188.396 211.58 187.807 212.141 187.803 212.376C187.81 214.154 189.516 218.677 190.199 218.688C190.369 218.691 190.782 218.529 191.16 218.334C191.71 218.074 191.818 217.773 191.658 217.032C191.499 216.292 191.606 215.991 192.122 215.731C192.673 215.437 192.911 215.508 193.278 216.084C193.678 216.694 193.814 216.73 194.673 216.374C195.189 216.147 195.602 215.885 195.604 215.751C195.62 214.711 191.659 210.321 190.669 210.306C190.532 210.304 189.81 210.662 189.086 211.12ZM191.205 213.166C191.675 213.711 191.392 214.344 190.641 214.332C190.368 214.328 190.168 213.989 190.176 213.486C190.191 212.547 190.602 212.419 191.205 213.166ZM98.1367 214.824C97.3615 216.389 96.6908 217.822 96.6204 217.955C96.5139 218.222 101.63 220.817 101.804 220.619C102.082 220.287 103.386 217.656 103.39 217.388C103.393 217.187 103.021 216.946 102.545 216.805C101.899 216.627 101.521 216.789 101.034 217.352C100.478 217.981 100.272 218.078 99.9363 217.704C99.5659 217.363 99.7102 216.862 100.66 215.064C101.75 212.967 101.787 212.799 101.213 212.388C100.032 211.497 99.5822 211.86 98.1367 214.824ZM183.166 214.15C181.308 215.128 180.991 215.728 181.582 217.247C182.142 218.631 182.888 218.945 184.464 218.566C186.247 218.09 186.344 218.461 184.658 219.274C183.214 219.957 182.718 221.09 183.703 221.474C184.246 221.684 187.34 220.288 188.001 219.527C188.591 218.865 188.24 217.248 187.365 216.43C186.793 215.917 186.486 215.879 185.321 216.163C183.573 216.573 183.239 216.064 184.854 215.451C185.85 215.064 186.093 214.799 186 214.194C185.88 213.118 185.163 213.107 183.166 214.15ZM105.502 215.44C105.255 216.007 105.318 216.31 105.689 216.618C106.161 216.994 106.158 217.196 105.626 218.53C105.164 219.664 104.887 219.961 104.377 219.819C103.697 219.641 102.721 220.935 103.226 221.345C103.765 221.823 107.467 223.122 107.778 222.925C108.225 222.664 108.18 221.186 107.738 221.045C107.432 220.94 107.473 220.504 107.865 219.437C108.294 218.235 108.537 217.937 109.22 217.947C109.8 217.956 110.076 217.759 110.153 217.19C110.265 216.588 109.996 216.315 108.809 215.793C106.096 214.611 105.857 214.573 105.502 215.44ZM177.326 216.51C176.398 216.865 175.47 217.287 175.297 217.452C175.019 217.717 176.778 223.247 177.382 223.961C177.617 224.233 181.702 222.819 182.221 222.324C182.36 222.192 182.333 221.755 182.169 221.316C181.907 220.574 181.839 220.573 180.636 221.058C179.159 221.639 178.783 221.667 178.79 221.197C178.793 220.996 179.174 220.666 179.655 220.472C180.273 220.213 180.518 219.882 180.456 219.411C180.364 218.738 179.752 218.561 178.518 218.878C178.278 218.941 178.007 218.836 177.908 218.633C177.842 218.431 178.428 218.071 179.183 217.848C180.59 217.399 180.694 217.3 180.366 216.389C180.104 215.68 179.42 215.737 177.326 216.51ZM110.241 220.379C109.633 222.182 109.234 223.72 109.368 223.856C109.503 223.992 109.978 224.167 110.455 224.242C111.204 224.354 111.378 224.155 111.879 222.686L112.485 221.018L112.846 221.963C113.042 222.503 113.199 223.411 113.189 224.049C113.173 225.122 113.61 225.565 114.702 225.582C115.248 225.59 117.53 219.283 117.127 218.908C116.992 218.771 116.518 218.529 116.076 218.388C115.43 218.211 115.258 218.309 114.902 219.243L114.51 220.311L113.714 218.755C113.152 217.572 112.749 217.163 112.168 217.154C111.486 217.143 111.241 217.542 110.241 220.379ZM172.279 218.312C171.559 218.469 171.519 218.837 172.017 219.818C172.548 220.799 172.205 220.895 170.92 220.103C169.668 219.312 169.021 219.202 168.263 219.66C167.849 219.922 167.91 220.426 168.691 222.955C169.178 224.573 169.701 226.058 169.869 226.228C170.003 226.398 170.549 226.44 171.029 226.313C171.783 226.123 171.922 225.958 171.761 225.351C171.631 224.947 171.472 224.172 171.343 223.633L171.153 222.657L172.202 223.277C172.743 223.621 173.383 224.235 173.547 224.64C173.812 225.215 174.117 225.354 174.767 225.263C175.863 225.045 175.868 224.743 174.762 221.135C173.85 218.303 173.582 217.963 172.279 218.312ZM119.764 218.344C119.752 219.116 119.922 219.219 121.558 219.412C122.921 219.567 123.434 219.508 123.782 219.077C124.374 218.314 123.968 218.073 121.719 217.77C119.811 217.506 119.777 217.539 119.764 218.344ZM163.879 220.532C162.68 220.782 161.718 221.17 161.715 221.371C161.704 222.076 162.342 222.79 162.957 222.8C163.4 222.807 163.633 223.213 163.856 224.257C164.111 225.469 164.038 225.77 163.52 226.131C163.106 226.426 162.998 226.76 163.161 227.3C163.421 228.143 163.728 228.147 166.847 227.356C167.91 227.104 168.152 226.907 168.059 226.301C167.998 225.83 167.695 225.524 167.218 225.449C166.707 225.374 166.405 225.034 166.28 224.26C166.153 223.654 165.994 222.914 165.931 222.577C165.8 222.206 165.939 222.007 166.281 222.012C166.963 222.022 167.174 221.623 166.949 220.747C166.757 219.905 166.723 219.905 163.879 220.532ZM118.977 220.681C117.724 222.273 117.618 222.506 117.112 224.31C116.679 225.814 116.676 225.982 117.252 226.292C118.234 226.844 118.953 226.721 118.964 226.017C118.976 225.178 119.321 224.982 120.237 225.365C120.746 225.541 120.912 225.845 120.769 226.313C120.624 226.848 120.791 227.085 121.538 227.365C122.047 227.574 122.592 227.616 122.731 227.484C123.113 227.087 123.709 223.841 123.554 222.799C123.248 220.512 123.148 220.376 121.856 220.021C120.054 219.49 119.917 219.521 118.977 220.681ZM121.305 222.529C121.568 223.204 120.839 223.931 120.369 223.454C119.965 223.045 120.289 221.977 120.767 221.984C120.938 221.987 121.173 222.225 121.305 222.529ZM159.05 221.532C158.74 221.695 158.629 222.23 158.687 222.936C158.773 223.977 158.669 224.076 157.848 224.164C156.993 224.252 156.892 224.15 156.906 223.244C156.925 222.036 156.723 221.865 155.456 222.081C154.532 222.234 154.496 222.334 154.681 223.646C155.45 229.128 155.483 229.229 156.268 229.241C157.429 229.259 157.811 228.828 157.762 227.586C157.708 226.612 157.848 226.379 158.43 226.321C159.046 226.23 159.213 226.467 159.369 227.409C159.557 228.486 159.726 228.623 160.579 228.636C161.467 228.65 161.605 228.517 161.618 227.712C161.631 226.84 161.232 223.914 160.852 221.996C160.659 221.221 159.877 221.007 159.05 221.532ZM125.375 222.088C124.482 226.84 124.364 227.845 124.804 228.153C125.683 228.704 126.611 228.315 126.728 227.344C126.805 226.808 127.085 226.309 127.36 226.213C128.15 225.923 128.752 226.704 128.565 227.809C128.414 228.746 128.447 228.813 129.607 228.831C130.734 228.849 130.803 228.783 131.029 227.444C131.177 226.674 131.121 225.901 130.953 225.731C130.784 225.561 130.73 224.687 130.846 223.783C131.04 222.242 131.008 222.141 130.159 221.793C129.65 221.617 128.425 221.33 127.403 221.213L125.563 220.95L125.375 222.088ZM128.558 223.781C128.553 224.151 128.309 224.449 128.036 224.445C127.763 224.44 127.529 224.135 127.534 223.766C127.54 223.397 127.783 223.098 128.057 223.103C128.33 223.107 128.564 223.412 128.558 223.781ZM151.08 222.416C148.857 222.684 148.371 223.18 148.342 225.092C148.282 229.017 148.985 229.901 152.131 229.614C154.011 229.441 154.114 229.409 154.025 228.569C153.935 227.762 153.799 227.693 152.4 227.671L150.863 227.648L150.784 226.17C150.672 224.524 151.02 224.127 152.556 224.15C153.409 224.163 153.513 224.064 153.423 223.257C153.303 222.215 153.167 222.18 151.08 222.416ZM132.668 222.972C132.661 223.408 132.894 223.848 133.165 223.986C133.504 224.126 133.666 224.665 133.65 225.739C133.631 226.98 133.489 227.314 132.975 227.44C132.358 227.598 131.725 228.797 132.095 229.172C132.196 229.274 133.32 229.425 134.582 229.512C136.731 229.679 136.936 229.615 137.117 228.98C137.227 228.512 137.096 228.107 136.623 227.798C136.117 227.421 135.986 227.016 136.106 225.877C136.193 224.637 136.368 224.371 137.018 224.314C137.531 224.255 137.774 223.99 137.783 223.42C137.797 222.514 137.084 222.235 134.49 222.195C132.817 222.169 132.679 222.234 132.668 222.972ZM139.162 224.75C138.664 226.051 138.404 227.423 138.459 228.33C138.539 229.74 138.607 229.808 139.562 229.823C140.416 229.836 140.589 229.705 140.703 228.901C140.817 228.198 141.024 228 141.639 228.009C142.253 228.019 142.455 228.223 142.547 228.929C142.603 229.702 142.805 229.907 143.76 229.988L144.85 230.106L144.879 228.26C144.895 227.22 144.612 225.605 144.219 224.525L143.565 222.67L139.98 222.615L139.162 224.75ZM142.198 224.964C142.195 225.132 142.292 225.503 142.39 225.806C142.52 226.211 142.382 226.343 141.869 226.335C141.187 226.325 140.86 225.38 141.414 224.885C141.726 224.554 142.204 224.595 142.198 224.964Z" fill="white"/>
</svg>
