<svg width="39" height="39" viewBox="0 0 39 39" fill="none" xmlns="http://www.w3.org/2000/svg">
<path d="M13.1625 21.6776L17.7612 17.0789L6.35375 5.68761C5.13717 6.90891 4.4541 8.56252 4.4541 10.2864C4.4541 12.0102 5.13717 13.6638 6.35375 14.8851L13.1625 21.6776ZM24.18 18.7364C26.6663 19.8901 30.16 19.0776 32.7437 16.4939C35.8475 13.3901 36.4487 8.93761 34.06 6.54886C31.6875 4.17636 27.235 4.76136 24.115 7.86511C21.5312 10.4489 20.7188 13.9426 21.8725 16.4289L6.0125 32.2889L8.30375 34.5801L19.5 23.4164L30.68 34.5964L32.9713 32.3051L21.7912 21.1251L24.18 18.7364Z" fill="#E6E6E6"/>
</svg>
