<svg width="120" height="88" viewBox="0 0 120 88" fill="none" xmlns="http://www.w3.org/2000/svg">
<g filter="url(#filter0_d_147_24)">
<path fill-rule="evenodd" clip-rule="evenodd" d="M113.539 2.4645C115.115 4.04119 116 6.17937 116 8.40882C116 10.6383 115.115 12.7764 113.539 14.3531L50.5442 77.3725C49.7117 78.2055 48.7233 78.8663 47.6355 79.3171C46.5477 79.768 45.3818 80 44.2043 80C43.0269 80 41.8609 79.768 40.7731 79.3171C39.6853 78.8663 38.6969 78.2055 37.8645 77.3725L6.56582 46.0674C5.7631 45.2918 5.12282 44.3641 4.68234 43.3383C4.24187 42.3125 4.01001 41.2092 4.00032 40.0928C3.99062 38.9765 4.20327 37.8693 4.62586 36.836C5.04845 35.8027 5.67252 34.864 6.46164 34.0746C7.25077 33.2851 8.18916 32.6608 9.22205 32.2381C10.2549 31.8153 11.3617 31.6026 12.4776 31.6123C13.5936 31.622 14.6964 31.8539 15.7218 32.2946C16.7472 32.7352 17.6746 33.3757 18.4499 34.1788L44.2015 59.9403L101.65 2.4645C102.43 1.68319 103.357 1.06339 104.377 0.640522C105.397 0.217653 106.49 0 107.594 0C108.699 0 109.792 0.217653 110.812 0.640522C111.832 1.06339 112.759 1.68319 113.539 2.4645Z" fill="#C12F28"/>
</g>
<defs>
<filter id="filter0_d_147_24" x="0" y="0" width="120" height="88" filterUnits="userSpaceOnUse" color-interpolation-filters="sRGB">
<feFlood flood-opacity="0" result="BackgroundImageFix"/>
<feColorMatrix in="SourceAlpha" type="matrix" values="0 0 0 0 0 0 0 0 0 0 0 0 0 0 0 0 0 0 127 0" result="hardAlpha"/>
<feOffset dy="4"/>
<feGaussianBlur stdDeviation="2"/>
<feComposite in2="hardAlpha" operator="out"/>
<feColorMatrix type="matrix" values="0 0 0 0 0 0 0 0 0 0 0 0 0 0 0 0 0 0 0.25 0"/>
<feBlend mode="normal" in2="BackgroundImageFix" result="effect1_dropShadow_147_24"/>
<feBlend mode="normal" in="SourceGraphic" in2="effect1_dropShadow_147_24" result="shape"/>
</filter>
</defs>
</svg>
