<svg width="27" height="27" viewBox="0 0 27 27" fill="none" xmlns="http://www.w3.org/2000/svg">
<path d="M21.6 21.6C20.1015 21.6 18.9 22.8015 18.9 24.3C18.9 25.0161 19.1845 25.7028 19.6908 26.2092C20.1972 26.7155 20.8839 27 21.6 27C22.3161 27 23.0028 26.7155 23.5092 26.2092C24.0155 25.7028 24.3 25.0161 24.3 24.3C24.3 23.5839 24.0155 22.8972 23.5092 22.3908C23.0028 21.8845 22.3161 21.6 21.6 21.6ZM0 0V2.7H2.7L7.56 12.9465L5.724 16.254C5.5215 16.632 5.4 17.0775 5.4 17.55C5.4 18.2661 5.68446 18.9528 6.19081 19.4592C6.69716 19.9655 7.38392 20.25 8.1 20.25H24.3V17.55H8.667C8.57749 17.55 8.49164 17.5144 8.42835 17.4511C8.36506 17.3879 8.3295 17.302 8.3295 17.2125C8.3295 17.145 8.343 17.091 8.37 17.0505L9.585 14.85H19.6425C20.655 14.85 21.546 14.283 22.005 13.4595L26.838 4.725C26.9325 4.509 27 4.2795 27 4.05C27 3.69196 26.8578 3.34858 26.6046 3.09541C26.3514 2.84223 26.008 2.7 25.65 2.7H5.6835L4.4145 0M8.1 21.6C6.6015 21.6 5.4 22.8015 5.4 24.3C5.4 25.0161 5.68446 25.7028 6.19081 26.2092C6.69716 26.7155 7.38392 27 8.1 27C8.81608 27 9.50284 26.7155 10.0092 26.2092C10.5155 25.7028 10.8 25.0161 10.8 24.3C10.8 23.5839 10.5155 22.8972 10.0092 22.3908C9.50284 21.8845 8.81608 21.6 8.1 21.6Z" fill="#C12F28"/>
</svg>
