<svg width="33" height="33" viewBox="0 0 33 33" fill="none" xmlns="http://www.w3.org/2000/svg">
<path d="M16.5 16.8709C24.384 16.8709 32.4741 21.6754 32.9981 31.3274C33.0182 31.6995 32.88 32.0638 32.6137 32.3404C32.3475 32.617 31.975 32.7833 31.5781 32.8027C27.418 33.0014 8.15196 33.1232 1.42393 32.8027C1.02664 32.7838 0.653637 32.6177 0.386963 32.341C0.120289 32.0644 -0.0182119 31.6998 0.00192492 31.3274C0.525927 21.6772 8.61596 16.8709 16.5 16.8709ZM16.5 0C14.5109 0 12.6032 0.740611 11.1967 2.05891C9.79014 3.3772 8.99996 5.16519 8.99996 7.02954C8.99996 8.8939 9.79014 10.6819 11.1967 12.0002C12.6032 13.3185 14.5109 14.0591 16.5 14.0591C18.4891 14.0591 20.3968 13.3185 21.8033 12.0002C23.2099 10.6819 24 8.8939 24 7.02954C24 5.16519 23.2099 3.3772 21.8033 2.05891C20.3968 0.740611 18.4891 0 16.5 0Z" fill="white"/>
</svg>
