<svg width="24" height="21" viewBox="0 0 24 21" fill="none" xmlns="http://www.w3.org/2000/svg">
<path d="M8.428 0C3.778 0 1.244 4.149 1.244 6.998C1.244 9.292 3.444 10.297 5.494 10.297L5.488 10.291C9.732 10.291 12.672 6.437 12.672 3.293C12.672 1.003 10.497 0 8.428 0ZM19.756 0C15.106 0 12.572 4.149 12.572 6.998C12.572 9.292 14.772 10.297 16.822 10.297L16.816 10.291C21.061 10.29 24 6.437 24 3.293C24 1.003 21.82 0 19.756 0ZM14.172 12.85L16.607 14.684C14.437 16.754 10.483 18.209 7.254 17.854C5.7575 17.6847 4.32832 17.1389 3.09998 16.2675C1.87164 15.3961 0.884234 14.2275 0.23 12.871H0C0.404031 14.9595 1.49026 16.8546 3.08811 18.2588C4.68597 19.6629 6.70495 20.4967 8.828 20.629C12.642 20.869 16.151 19.724 18.775 17.499L18.771 17.506L19.851 20.494L21.406 12.871L14.172 12.85Z" fill="white"/>
</svg>
