<svg width="13" height="12" viewBox="0 0 13 12" fill="none" xmlns="http://www.w3.org/2000/svg">
<path d="M9.91658 9.50008C9.26908 9.50008 8.74992 10.0192 8.74992 10.6667C8.74992 10.9762 8.87284 11.2729 9.09163 11.4917C9.31042 11.7105 9.60717 11.8334 9.91658 11.8334C10.226 11.8334 10.5227 11.7105 10.7415 11.4917C10.9603 11.2729 11.0833 10.9762 11.0833 10.6667C11.0833 10.3573 10.9603 10.0606 10.7415 9.84179C10.5227 9.623 10.226 9.50008 9.91658 9.50008ZM0.583252 0.166748V1.33341H1.74992L3.84992 5.76091L3.05659 7.19008C2.96908 7.35341 2.91659 7.54591 2.91659 7.75008C2.91659 8.0595 3.0395 8.35625 3.25829 8.57504C3.47709 8.79383 3.77383 8.91675 4.08325 8.91675H11.0833V7.75008H4.32825C4.28957 7.75008 4.25248 7.73472 4.22513 7.70737C4.19778 7.68002 4.18242 7.64293 4.18242 7.60425C4.18242 7.57508 4.18825 7.55175 4.19992 7.53425L4.72492 6.58341H9.07075C9.50825 6.58341 9.89325 6.33841 10.0916 5.98258L12.1799 2.20841C12.2208 2.11508 12.2499 2.01591 12.2499 1.91675C12.2499 1.76204 12.1885 1.61367 12.0791 1.50427C11.9697 1.39487 11.8213 1.33341 11.6666 1.33341H3.03909L2.49075 0.166748M4.08325 9.50008C3.43575 9.50008 2.91659 10.0192 2.91659 10.6667C2.91659 10.9762 3.0395 11.2729 3.25829 11.4917C3.47709 11.7105 3.77383 11.8334 4.08325 11.8334C4.39267 11.8334 4.68942 11.7105 4.90821 11.4917C5.127 11.2729 5.24992 10.9762 5.24992 10.6667C5.24992 10.3573 5.127 10.0606 4.90821 9.84179C4.68942 9.623 4.39267 9.50008 4.08325 9.50008Z" fill="white"/>
</svg>
