<svg width="22" height="23" viewBox="0 0 22 23" fill="none" xmlns="http://www.w3.org/2000/svg">
<path d="M10.9995 21.2522H13.977C14.0183 19.8835 14.219 19.131 14.579 18.9947C18.334 17.5697 20.9995 13.9692 20.9995 9.7522H0.999512C0.999512 13.8777 3.55101 17.4137 7.17801 18.8992C7.55701 19.0545 7.84018 19.8389 8.02751 21.2522H10.9995Z" stroke="#3F1311" stroke-width="2" stroke-linejoin="round"/>
<path d="M6.22119 13.2637C6.40119 13.857 6.63902 14.3473 6.93469 14.7347C7.243 15.1313 7.60284 15.4851 8.00469 15.7867M11.6067 9.76516C12.7156 7.48304 13.8193 5.19837 14.9177 2.91116C15.4427 1.80616 16.5077 1.54016 17.4902 1.96016C18.4727 2.38016 18.8702 3.58116 18.4577 4.41866C18.2027 4.936 17.3377 6.7145 15.8627 9.75416" stroke="#3F1311" stroke-width="2" stroke-linecap="round"/>
</svg>
